<svg width="570" height="190" viewBox="0 0 570 190" fill="none" xmlns="http://www.w3.org/2000/svg">
<path d="M554.192 189.911H15.7558C5.05728 189.911 -2.48434 179.385 0.760306 169.038L9.88039 139.869L20.579 105.883L25.3144 90.8969C31.9791 69.756 51.2716 55.3945 73.1072 55.3945H496.928C518.764 55.3945 538.056 69.756 544.721 90.8969L569.275 169.038C572.432 179.385 564.89 189.911 554.192 189.911Z" fill="#276EF1"/>
<path d="M145.192 52.5394C145.28 53.0746 145.368 53.6098 145.455 54.145C145.455 54.4127 145.543 54.6803 145.631 54.9479C146.069 57.0887 146.683 59.2296 147.385 61.2812C147.385 61.2812 147.385 61.3704 147.472 61.3704C147.56 61.5488 147.56 61.638 147.648 61.8164C147.735 62.084 147.823 62.2624 147.911 62.53C147.911 62.6192 147.998 62.7084 147.998 62.7976C148.086 62.8868 148.086 63.0652 148.174 63.1544C148.349 63.5112 148.437 63.8681 148.612 64.1357C148.788 64.5817 149.051 65.0277 149.226 65.3845V65.4737V65.5629C149.226 65.6521 149.314 65.6521 149.314 65.7413C149.314 65.7413 149.314 65.7413 149.314 65.8305C149.402 65.9197 149.402 66.0089 149.489 66.0981C149.489 66.1873 149.577 66.2765 149.577 66.3657C149.577 66.4549 149.665 66.5441 149.665 66.6333C149.665 66.6333 149.665 66.7225 149.752 66.7225C149.84 66.8117 149.84 66.9009 149.928 66.9901C150.015 67.1685 150.103 67.2577 150.191 67.4361C150.279 67.5253 150.366 67.7037 150.454 67.7929C150.542 67.9713 150.629 68.1498 150.717 68.239C150.717 68.3282 150.805 68.3281 150.805 68.4173C150.805 68.5065 150.892 68.5958 150.892 68.5958C150.98 68.685 150.98 68.685 150.98 68.7742C151.068 68.8634 151.068 68.8634 151.155 68.9526L151.243 69.0418C151.243 69.0418 151.331 69.131 151.331 69.2202C151.331 69.2202 151.331 69.2202 151.419 69.3094C151.506 69.4878 151.682 69.6662 151.769 69.8446C151.857 70.023 152.032 70.2014 152.208 70.3798C152.471 70.7366 152.734 71.0934 153.085 71.4502C153.172 71.5394 153.26 71.6286 153.26 71.7178C153.348 71.807 153.435 71.9854 153.611 72.0746C153.699 72.1638 153.786 72.3422 153.962 72.4314L154.049 72.5206L154.137 72.6098L154.225 72.699L154.312 72.7883C154.4 72.8775 154.576 72.9667 154.663 73.1451C154.751 73.2343 154.839 73.4127 155.014 73.5019C155.102 73.5911 155.277 73.6803 155.365 73.7695C155.628 74.0371 155.891 74.3047 156.154 74.5723C156.154 74.5723 156.154 74.5723 156.242 74.5723C156.242 74.5723 156.242 74.5723 156.329 74.6615C156.329 74.6615 156.329 74.6615 156.417 74.7507L156.505 74.8399L156.592 74.9291C156.68 75.0183 156.855 75.1967 157.031 75.2859C157.206 75.3751 157.294 75.5535 157.469 75.6427C157.732 75.8211 157.996 76.0887 158.259 76.2671C158.346 76.3563 158.434 76.4455 158.522 76.4455C158.609 76.5347 158.609 76.5347 158.697 76.5347C158.785 76.6239 158.96 76.7131 159.048 76.8915C159.136 76.8915 159.136 76.9807 159.223 76.9807C159.399 77.0699 159.486 77.1591 159.662 77.3375C159.749 77.3375 159.749 77.4267 159.837 77.4267C159.925 77.4267 160.012 77.5159 160.012 77.6051C160.188 77.6944 160.276 77.7835 160.363 77.8727C160.451 77.9619 160.626 78.0512 160.802 78.1404C160.889 78.2296 161.065 78.3188 161.152 78.408C161.328 78.4972 161.416 78.5863 161.591 78.6756C161.766 78.7648 161.854 78.854 162.029 78.9432C162.117 79.0324 162.205 79.0324 162.292 79.1216C162.292 79.1216 162.292 79.1216 162.38 79.1216L162.468 79.2108V116.765H202.456V88.6662V88.0417L202.894 88.2202L206.841 89.6474C207.191 89.7366 207.63 89.915 208.068 90.0042C208.331 90.0934 208.507 90.0934 208.77 90.0934C209.647 90.1826 210.524 90.0934 211.313 89.915C211.927 89.8258 212.453 89.5582 212.979 89.2906C213.155 89.2014 213.418 89.023 213.593 88.9338C213.768 88.8446 213.944 88.6662 214.119 88.577C214.119 88.577 214.207 88.577 214.207 88.4878C214.295 88.3986 214.382 88.3986 214.47 88.3094C214.558 88.2202 214.645 88.131 214.733 88.131C214.908 87.9526 215.084 87.7741 215.259 87.5957C215.347 87.5065 215.435 87.4173 215.522 87.3281C215.61 87.2389 215.698 87.1497 215.785 87.0605C215.873 86.9714 215.961 86.8821 215.961 86.7929C216.048 86.7037 216.048 86.6145 216.136 86.5253C216.224 86.3469 216.312 86.1685 216.487 85.9901C216.575 85.9009 216.575 85.7225 216.662 85.6333C216.75 85.5441 216.75 85.3657 216.838 85.2765C216.838 85.1873 216.925 85.0089 217.013 84.9197C217.101 84.6521 217.188 84.3845 217.276 84.1169C217.276 84.0277 217.364 83.8493 217.364 83.7601C217.364 83.6709 217.451 83.4925 217.451 83.4033C217.451 83.4033 217.451 83.4033 217.451 83.3141C217.451 83.2249 217.451 83.0465 217.451 82.9573L217.89 78.7648L218.241 75.5535L219.03 68.0605L223.327 66.0089C224.818 65.3845 225.256 63.3329 224.379 62.084L219.731 55.8399C218.767 54.4127 218.504 52.6286 219.03 51.023C219.995 48.5253 220.258 45.7601 219.907 43.084C219.907 42.7272 219.819 42.2812 219.731 41.9244C218.679 36.7507 216.575 32.023 213.681 27.9197C213.505 27.6521 213.33 27.3845 213.155 27.2061C212.804 26.6709 212.453 26.2249 212.102 25.7789C211.751 25.3329 211.313 24.7976 210.962 24.3516C210.611 23.9056 210.173 23.4596 209.734 23.0136C209.559 22.8352 209.296 22.5676 209.121 22.3892C208.77 22.0324 208.419 21.6756 208.068 21.3188C207.981 21.2296 207.893 21.1404 207.805 21.0512C207.454 20.6944 207.104 20.4268 206.665 20.07C206.227 19.7131 205.788 19.3563 205.438 18.9995C204.999 18.6427 204.561 18.3751 204.122 18.0183C203.684 17.7507 203.245 17.3939 202.807 17.1263C202.807 17.1263 202.719 17.1263 202.719 17.0371C202.281 16.7695 201.842 16.5019 201.404 16.2343C200.965 15.9667 200.439 15.6991 200.001 15.4314C199.65 15.253 199.211 14.9855 198.773 14.8071C198.51 14.7179 198.334 14.5394 198.071 14.4502C197.721 14.2718 197.282 14.0934 196.931 13.915C196.668 13.8258 196.405 13.7366 196.142 13.5582C195.879 13.469 195.616 13.3798 195.353 13.2906C194.914 13.1122 194.476 12.9338 194.037 12.8446C193.774 12.7554 193.511 12.6662 193.248 12.577C192.897 12.4878 192.459 12.3094 192.108 12.2202C191.582 12.0418 191.056 11.9526 190.442 11.7742C189.828 11.5958 189.302 11.5066 188.776 11.4174C188.337 11.3282 187.899 11.239 187.548 11.239C187.11 11.1498 186.671 11.1498 186.32 11.0606C186.057 11.0606 185.794 10.9714 185.443 10.9714H185.005H184.83H184.567C184.391 10.9714 184.303 10.8821 184.04 10.8821C182.9 10.7929 181.848 10.793 180.708 10.793H180.094C179.656 10.793 179.217 10.7929 178.779 10.8821C177.551 10.9714 176.323 11.0606 175.096 11.239C175.096 11.239 175.096 11.239 175.008 11.239C174.482 11.3282 174.043 11.4174 173.517 11.5066C173.254 11.5958 173.079 11.5958 172.816 11.685C172.289 11.7742 171.851 11.9526 171.325 12.0418C170.974 12.131 170.536 12.3094 170.185 12.3986C170.009 12.4878 169.834 12.4878 169.571 12.577C169.22 12.6662 168.957 12.7554 168.606 12.8446C168.168 13.023 167.729 13.2014 167.291 13.3798C167.203 13.469 167.028 13.469 166.853 13.5582C166.502 13.7366 166.151 13.915 165.8 14.0934C165.712 14.1826 165.537 14.1826 165.362 14.2718C165.274 14.2718 165.186 14.361 165.099 14.4502C164.836 14.6286 164.485 14.7178 164.222 14.8962C164.222 14.8962 164.222 14.8962 164.134 14.8962C164.046 14.9854 163.871 14.9854 163.783 15.0746C163.52 15.2531 163.169 15.4315 162.906 15.6099C162.819 15.6099 162.819 15.6991 162.731 15.6991C162.468 15.7883 162.293 15.9667 162.117 16.1451C161.854 16.2343 161.679 16.4127 161.416 16.5911C161.328 16.5911 161.24 16.6803 161.152 16.6803C160.802 16.9479 160.363 17.2155 160.1 17.4831C160.012 17.4831 160.012 17.5723 160.012 17.5723C159.925 17.5723 159.925 17.6615 159.925 17.6615C159.574 17.9291 159.223 18.1967 158.872 18.4643C158.609 18.6427 158.346 18.9103 158.083 19.0887C157.294 19.7131 156.505 20.4267 155.803 21.1404C155.54 21.408 155.365 21.5864 155.102 21.854C154.839 22.1216 154.663 22.3892 154.4 22.5676C154.137 22.8352 153.962 23.1028 153.699 23.3704C153.435 23.638 153.26 23.9056 153.085 24.1732C152.822 24.4409 152.559 24.7977 152.383 24.9761C152.208 25.1545 152.12 25.3329 151.945 25.5113L151.857 25.6005C151.769 25.6897 151.682 25.7789 151.682 25.8681C151.419 26.1357 151.243 26.4925 151.068 26.7601C151.068 26.8493 150.98 26.8493 150.98 26.9385C150.892 27.0277 150.805 27.1169 150.805 27.2953L150.717 27.3845C150.717 27.3845 150.717 27.4737 150.629 27.4737C150.454 27.7413 150.279 28.0089 150.103 28.2765C149.928 28.5441 149.84 28.8117 149.665 29.0793C149.577 29.1686 149.577 29.2577 149.489 29.3469V29.4361C149.226 29.793 149.051 30.1498 148.875 30.5958C148.788 30.7742 148.7 30.9526 148.612 31.131C148.612 31.2202 148.525 31.2202 148.525 31.3094C148.437 31.4878 148.349 31.7554 148.262 31.9338C148.174 32.2014 147.999 32.469 147.911 32.7366C147.823 33.0042 147.735 33.2718 147.648 33.4502C147.648 33.5394 147.56 33.6286 147.56 33.7178V33.807C147.56 33.8962 147.472 33.8962 147.472 33.9854C147.385 34.0747 147.385 34.1638 147.385 34.253C147.385 34.3422 147.297 34.4314 147.297 34.5206C147.209 34.7882 147.122 35.0559 147.034 35.2343C147.034 35.3235 147.034 35.3235 146.946 35.4127C146.946 35.5019 146.858 35.5911 146.858 35.6803C146.858 35.7695 146.858 35.7695 146.858 35.8587C146.771 35.9479 146.771 36.0371 146.771 36.0371C146.683 36.3047 146.595 36.4831 146.508 36.7507C146.508 36.8399 146.508 36.9291 146.42 36.9291C146.332 37.3751 146.157 37.8211 146.069 38.2671C146.069 38.3563 145.982 38.5347 145.982 38.6239C145.982 38.8023 145.894 38.9807 145.894 39.2484C145.806 39.4268 145.806 39.6943 145.718 39.8727V39.962V40.0512C145.718 40.1404 145.718 40.2296 145.718 40.3188C145.631 40.9432 145.455 41.4784 145.455 42.1028C145.368 42.3704 145.368 42.7272 145.28 42.9948C145.28 43.2624 145.192 43.6192 145.192 43.976C144.842 47.5441 144.929 50.0418 145.192 52.5394Z" fill="#FFB0A2"/>
<path d="M147.296 61.2812C147.296 61.2812 147.296 61.3704 147.384 61.3704C147.472 61.8164 147.647 62.1732 147.822 62.53C147.822 62.6192 147.91 62.7084 147.91 62.7976C148.085 63.2436 148.261 63.6896 148.524 64.1356C148.699 64.5817 148.962 65.0277 149.138 65.3845C149.138 65.3845 149.138 65.3845 149.225 65.4737C149.225 65.5629 149.313 65.6521 149.313 65.7413C149.489 66.0089 149.664 66.3657 149.839 66.6333C149.927 66.7225 150.015 66.9009 150.102 67.0793C150.278 67.3469 150.453 67.6145 150.541 67.8821C150.629 68.0605 150.716 68.2389 150.892 68.3281C151.067 68.5957 151.242 68.8633 151.418 69.131C151.505 69.2202 151.593 69.3093 151.593 69.3986C151.593 69.3986 151.593 69.4878 151.681 69.4878C151.944 69.8446 152.207 70.2906 152.47 70.5582C152.733 70.915 152.996 71.2718 153.347 71.6286L153.435 71.7178C153.522 71.807 153.61 71.8962 153.61 71.9854C153.786 72.253 154.049 72.4314 154.224 72.699C154.312 72.699 154.312 72.7882 154.399 72.8774L154.575 73.0558C154.75 73.2342 155.013 73.5018 155.189 73.7694C155.276 73.8586 155.452 73.9479 155.539 74.0371C155.802 74.3047 156.416 74.9291 156.504 75.0183C156.592 75.0183 156.679 75.1075 156.679 75.1967C156.679 75.2859 157.995 76.3563 159.222 77.4267C160.889 78.854 162.029 80.8164 162.643 82.9572L172.464 69.3986C174.218 66.9901 173.867 63.6004 171.763 61.5488L169.746 59.5863C165.273 55.3047 167.027 47.7225 172.903 46.0277C173.867 45.7601 174.832 45.6709 175.797 45.7601C178.953 46.0277 181.76 48.2577 182.724 51.5582L183.25 53.5206L184.127 56.5535C184.215 56.5535 184.215 56.5535 184.303 56.4643C184.566 56.3751 184.917 56.1967 185.092 55.9291C185.618 55.2154 185.618 54.3234 185.881 53.5206C186.144 52.7178 186.758 51.915 187.547 52.0042C187.46 51.7366 187.46 51.469 187.372 51.2014C188.249 51.469 189.126 50.9338 189.564 50.1309C190.003 49.3281 190.091 48.4361 190.266 47.4549C191.231 46.7413 192.02 45.6708 192.458 44.3328C192.546 44.1544 192.546 43.8868 192.634 43.7084C192.809 42.8164 192.809 41.9244 192.634 41.0324C192.634 40.5864 192.546 40.2295 192.458 39.8727L191.055 34.6098C190.003 30.4173 193.16 26.8493 197.457 26.8493H212.54C211.488 25.422 210.26 23.9948 208.945 22.746C202.718 16.5019 194.387 12.3986 185.267 11.5957L184.39 11.5065C184.215 11.5065 184.04 11.4173 183.864 11.4173C182.724 11.3281 181.672 11.3281 180.532 11.3281H179.83C178.077 11.3281 176.41 11.5065 174.744 11.7741C173.078 12.0417 171.5 12.3986 169.921 12.9338C169.395 13.1122 168.869 13.2906 168.343 13.469C167.904 13.6474 167.466 13.8258 167.027 14.0042C166.939 14.0934 166.764 14.0934 166.589 14.1826C166.238 14.361 165.887 14.5394 165.449 14.7178C165.361 14.807 165.186 14.807 165.01 14.8962C164.572 15.0746 164.221 15.3422 163.783 15.5206C163.783 15.5206 163.783 15.5206 163.695 15.5206C163.256 15.7882 162.73 16.0558 162.292 16.3234C161.853 16.591 161.415 16.8586 160.976 17.1262C160.889 17.1262 160.801 17.2155 160.713 17.3047C160.362 17.5723 159.924 17.8399 159.661 18.1075C159.573 18.1967 159.486 18.2859 159.398 18.2859C159.047 18.5535 158.696 18.8211 158.346 19.0887C156.241 20.7835 154.312 22.6568 152.558 24.7976C152.295 25.0652 152.119 25.422 151.856 25.6004C151.681 25.868 151.505 26.0465 151.418 26.3141C151.067 26.7601 150.804 27.1169 150.541 27.5629C150.365 27.8305 150.19 28.0089 150.015 28.2765C149.839 28.5441 149.664 28.8117 149.489 29.0793C149.313 29.4361 149.05 29.7929 148.875 30.1497C148.787 30.2389 148.787 30.2389 148.787 30.3281C148.524 30.6849 148.349 31.1309 148.173 31.4878C148.085 31.6662 147.998 31.8446 147.91 32.023C147.735 32.2906 147.647 32.5582 147.559 32.8258C147.472 33.0934 147.296 33.361 147.209 33.6286C147.033 33.9854 146.945 34.253 146.858 34.6098C146.77 34.7882 146.682 34.9666 146.595 35.145C146.507 35.5018 146.332 35.8587 146.244 36.1263C146.156 36.3047 146.068 36.4831 146.068 36.6615C145.981 36.7507 145.981 36.8399 145.981 36.8399C145.805 37.1075 145.805 37.4643 145.718 37.7319C145.542 38.2671 145.367 38.8023 145.279 39.4267C145.192 39.7835 145.104 40.2296 145.016 40.6756C145.016 40.854 144.928 41.0324 144.928 41.1216C144.841 41.746 144.665 42.2812 144.665 42.9056C144.578 43.53 144.49 44.1544 144.402 44.7788C144.578 50.7554 145.455 56.2859 147.296 61.2812Z" fill="#99644C"/>
<path d="M219.292 68.6851L218.502 76.1781L218.152 79.3893L217.713 83.4926C217.713 83.5818 217.713 83.7602 217.625 83.8494V83.9386C217.625 84.0278 217.538 84.2062 217.538 84.2954C217.538 84.3846 217.45 84.563 217.45 84.6522C217.362 84.9198 217.275 85.1874 217.187 85.455C217.187 85.5442 217.099 85.7226 217.012 85.8118C216.924 85.901 216.924 86.0795 216.836 86.1687C216.749 86.2579 216.749 86.4363 216.661 86.5255C216.573 86.7039 216.485 86.8823 216.31 87.0607C216.222 87.1499 216.222 87.2391 216.135 87.3283C216.047 87.4175 215.959 87.5067 215.959 87.5959C215.872 87.6851 215.784 87.7743 215.696 87.8635C215.609 87.9527 215.521 88.0419 215.433 88.1311C215.258 88.3095 215.082 88.4879 214.907 88.6663C214.732 88.8447 214.556 88.9339 214.381 89.1123C214.381 89.1123 214.293 89.1123 214.293 89.2015C214.118 89.3799 213.942 89.4691 213.767 89.5583C213.592 89.6475 213.328 89.8259 213.153 89.9151C212.627 90.1827 212.013 90.3612 211.487 90.5396C210.698 90.718 209.821 90.8072 208.944 90.7179C208.681 90.7179 208.505 90.6288 208.242 90.6288C207.804 90.5396 207.453 90.4503 207.015 90.2719L203.068 88.8447L202.63 88.6663L191.581 84.8306C189.388 84.0278 187.81 82.1546 187.547 79.8353L186.845 76.0888L183.425 56.9996L182.285 50.6663L190.353 47.7227L192.633 63.4222C193.159 66.7227 195.001 69.5771 197.807 71.2719C199.298 72.164 200.876 72.61 202.542 72.61C204.647 72.61 206.752 71.8964 208.418 70.4691C210.084 69.0419 212.189 68.3283 214.293 68.3283C214.556 68.3283 214.819 68.3283 214.995 68.3283L219.292 68.6851Z" fill="#99644C"/>
<path d="M284.974 189.91L274.363 156.013C270.68 142.812 260.507 132.732 247.879 129.61L217.801 122.206C209.031 120.065 202.893 111.769 202.893 102.225V101.422V101.154H197.543C196.842 101.154 196.228 101.243 195.526 101.511C194.737 101.779 194.123 102.225 193.51 102.76L183.249 112.126L172.025 102.582C171.499 102.136 170.797 101.779 170.183 101.511C169.569 101.243 168.868 101.154 168.166 101.154H162.817V101.511V102.314C162.817 111.859 156.678 120.154 147.909 122.295L117.743 129.699C105.115 132.821 94.9424 142.901 91.2593 156.103L80.6484 189.999H284.974V189.91Z" fill="white"/>
<path d="M214.994 189.91H194.386L133.352 117.568C134.492 117.479 153.959 117.479 153.959 117.479L214.994 189.91Z" fill="#276EF1"/>
<path d="M431.684 58.6938C439.772 58.6938 446.329 52.0243 446.329 43.7971C446.329 35.5699 439.772 28.9004 431.684 28.9004C423.596 28.9004 417.039 35.5699 417.039 43.7971C417.039 52.0243 423.596 58.6938 431.684 58.6938Z" fill="black"/>
<path d="M447.731 71.4505L442.821 74.305L440.453 87.7744C439.664 92.1453 435.717 94.9998 431.333 94.7322C431.07 94.7322 425.194 93.305 419.845 91.6993L416.863 115.962L387.398 112.216L389.854 89.2017C390.117 86.3472 388.802 83.582 386.434 81.9763C382.049 79.0327 378.454 75.0186 375.735 70.3801C375.472 69.8449 375.121 69.3097 374.858 68.7745C374.42 67.8824 373.981 66.9012 373.543 65.92C371.789 61.7275 370.912 57.089 370.912 52.2721C370.912 32.9153 386.083 21.1407 405.025 20.6055C405.376 20.6055 405.726 20.6055 406.077 20.6055C418.091 20.6055 430.28 28.2768 435.63 35.6806C437.033 37.643 438.085 39.427 438.874 41.2111C441.593 46.92 441.768 53.4317 441.593 55.751C441.505 57.1782 441.856 58.6054 442.733 59.7651C445.101 62.7979 448.871 67.1688 448.871 67.1688C450.362 68.6852 449.661 70.3801 447.731 71.4505Z" fill="#99644C"/>
<path d="M393.537 67.1681L389.766 89.1118C389.942 87.2385 389.503 85.4545 388.451 83.9381C387.925 83.1353 387.223 82.4216 386.434 81.8864C382.049 78.9428 378.454 74.9287 375.735 70.2902C375.472 69.755 375.121 69.2198 374.858 68.6846C374.42 67.7925 373.981 66.8113 373.543 65.8301L393.537 67.1681Z" fill="black"/>
<path d="M366.878 41.0329C378.018 41.0329 387.048 31.8473 387.048 20.5164C387.048 9.18552 378.018 0 366.878 0C355.739 0 346.709 9.18552 346.709 20.5164C346.709 31.8473 355.739 41.0329 366.878 41.0329Z" fill="black"/>
<path d="M438.787 41.1219L431.158 48.0796C423.616 54.9482 414.847 60.3003 405.376 63.7792C396.431 67.0796 387.048 68.7745 377.577 68.7745C376.7 68.7745 375.823 68.7745 374.946 68.7745C372.403 63.8684 371 58.2487 371 52.2721C371 32.9153 386.171 21.1407 405.113 20.6055C405.463 20.6055 405.814 20.6055 406.165 20.6055C418.179 20.6055 430.368 28.2768 435.718 35.6806C436.945 37.5538 437.998 39.4271 438.787 41.1219Z" fill="black"/>
<path d="M406.165 60.9237C406.165 65.2054 402.745 68.5951 398.624 68.5951C396.958 68.5951 395.467 68.0599 394.239 67.1678H393.625L392.573 65.5622L392.135 64.8486V64.7594C391.521 63.689 391.17 62.351 391.17 61.0129C391.17 56.7312 394.59 53.3416 398.712 53.3416C402.745 53.2524 406.165 56.642 406.165 60.9237Z" fill="#99644C"/>
<path d="M394.941 82.0653L389.767 89.2015C389.942 87.3282 389.504 85.5442 388.451 84.0278L385.996 74.394L393.538 67.2578L395.555 70.7367C397.572 74.3048 397.308 78.6757 394.941 82.0653Z" fill="black"/>
<path d="M413.62 21.498L436.859 29.883V35.1459L410.463 33.0943L413.62 21.498Z" fill="black"/>
<path d="M492.631 189.911H456.94L425.195 134.071L430.808 130.77C442.471 123.902 457.379 128.005 464.131 139.869L492.631 189.911Z" fill="#99644C"/>
<path d="M465.534 189.912H353.111L348.814 131.663L366.879 122.832L380.472 115.785C384.769 113.555 387.663 109.184 388.189 104.367L388.452 101.691H418.618L417.39 117.391C417.215 120.691 419.232 123.813 422.301 124.884L443.172 127.382L447.645 142.011C449.135 146.828 451.328 151.288 454.222 155.302L458.431 161.1C464.569 169.396 467.025 179.832 465.534 189.912Z" fill="#FF7D49"/>
<path d="M369.949 189.91H390.557L451.592 117.568C450.452 117.479 430.984 117.479 430.984 117.479L369.949 189.91Z" fill="#276EF1"/>
<path d="M379.682 189.91H348.727L338.905 157.441C336.449 146.291 340.483 133.178 350.568 130.859C351.708 130.591 352.848 130.502 353.988 130.502C362.67 130.502 370.036 138.173 372.228 148.164L379.682 189.91Z" fill="#99644C"/>
</svg>
